<svg width="22" height="22" viewBox="0 0 22 22" fill="none" xmlns="http://www.w3.org/2000/svg">
<path d="M10.9987 20.2402C10.7237 20.2402 10.4487 20.176 10.2195 20.0477C8.50536 19.1127 5.48953 18.1227 3.6012 17.8752L3.33536 17.8385C2.13453 17.6919 1.14453 16.5644 1.14453 15.3452V4.27188C1.14453 3.54771 1.4287 2.88771 1.9512 2.41104C2.4737 1.93438 3.15203 1.70521 3.86703 1.76938C5.8837 1.92521 8.92703 2.93354 10.6504 4.01521L10.8704 4.14354C10.9345 4.18021 11.072 4.18021 11.127 4.15271L11.2737 4.06104C12.997 2.97938 16.0404 1.95271 18.0662 1.77854C18.0845 1.77854 18.1579 1.77854 18.1762 1.77854C18.8454 1.71438 19.5329 1.95271 20.0462 2.42938C20.5687 2.90604 20.8529 3.56604 20.8529 4.29021V15.3544C20.8529 16.5827 19.8629 17.701 18.6529 17.8477L18.3504 17.8844C16.462 18.1319 13.437 19.131 11.7595 20.0569C11.5395 20.1852 11.2737 20.2402 10.9987 20.2402ZM3.64703 3.13521C3.3537 3.13521 3.08786 3.23604 2.87703 3.42854C2.64786 3.63938 2.51953 3.94188 2.51953 4.27188V15.3452C2.51953 15.886 2.98703 16.4085 3.50953 16.4819L3.78453 16.5185C5.84703 16.7935 9.00953 17.8294 10.8429 18.8285C10.9254 18.8652 11.0445 18.8744 11.0904 18.856C12.9237 17.8385 16.1045 16.7935 18.1762 16.5185L18.4879 16.4819C19.0104 16.4177 19.4779 15.886 19.4779 15.3452V4.28104C19.4779 3.94188 19.3495 3.64854 19.1204 3.42854C18.882 3.21771 18.5795 3.11688 18.2404 3.13521C18.222 3.13521 18.1487 3.13521 18.1304 3.13521C16.3795 3.29104 13.5562 4.23521 12.0162 5.19771L11.8695 5.29854C11.3654 5.61021 10.6504 5.61021 10.1645 5.30771L9.94453 5.17938C8.37703 4.21688 5.5537 3.28188 3.75703 3.13521C3.72036 3.13521 3.6837 3.13521 3.64703 3.13521Z" fill="#232122"/>
<path d="M11 19.4702C10.6242 19.4702 10.3125 19.1585 10.3125 18.7827V5.03271C10.3125 4.65688 10.6242 4.34521 11 4.34521C11.3758 4.34521 11.6875 4.65688 11.6875 5.03271V18.7827C11.6875 19.1677 11.3758 19.4702 11 19.4702Z" fill="#232122"/>
<path d="M7.10547 8.47021H5.04297C4.66714 8.47021 4.35547 8.15855 4.35547 7.78271C4.35547 7.40688 4.66714 7.09521 5.04297 7.09521H7.10547C7.4813 7.09521 7.79297 7.40688 7.79297 7.78271C7.79297 8.15855 7.4813 8.47021 7.10547 8.47021Z" fill="#232122"/>
<path d="M7.79297 11.2202H5.04297C4.66714 11.2202 4.35547 10.9085 4.35547 10.5327C4.35547 10.1569 4.66714 9.84521 5.04297 9.84521H7.79297C8.1688 9.84521 8.48047 10.1569 8.48047 10.5327C8.48047 10.9085 8.1688 11.2202 7.79297 11.2202Z" fill="#232122"/>
</svg>
