<svg width="60" height="60" viewBox="0 0 60 60" fill="none" xmlns="http://www.w3.org/2000/svg">
<rect width="60" height="60" rx="30" fill="#232122"/>
<path d="M26.9096 38.67C26.7196 38.67 26.5296 38.6 26.3796 38.45C26.0896 38.16 26.0896 37.68 26.3796 37.39L32.8996 30.87C33.3796 30.39 33.3796 29.61 32.8996 29.13L26.3796 22.61C26.0896 22.32 26.0896 21.84 26.3796 21.55C26.6696 21.26 27.1496 21.26 27.4396 21.55L33.9596 28.07C34.4696 28.58 34.7596 29.27 34.7596 30C34.7596 30.73 34.4796 31.42 33.9596 31.93L27.4396 38.45C27.2896 38.59 27.0996 38.67 26.9096 38.67Z" fill="#F6F6F6"/>
</svg>
