<svg width="44" height="44" viewBox="0 0 44 44" fill="none" xmlns="http://www.w3.org/2000/svg">
<rect width="44" height="44" rx="22" fill="#F6F6F6"/>
<path d="M19.1596 21.62C19.1296 21.62 19.1096 21.62 19.0796 21.62C19.0296 21.61 18.9596 21.61 18.8996 21.62C15.9996 21.53 13.8096 19.25 13.8096 16.44C13.8096 13.58 16.1396 11.25 18.9996 11.25C21.8596 11.25 24.1896 13.58 24.1896 16.44C24.1796 19.25 21.9796 21.53 19.1896 21.62C19.1796 21.62 19.1696 21.62 19.1596 21.62ZM18.9996 12.75C16.9696 12.75 15.3096 14.41 15.3096 16.44C15.3096 18.44 16.8696 20.05 18.8596 20.12C18.9196 20.11 19.0496 20.11 19.1796 20.12C21.1396 20.03 22.6796 18.42 22.6896 16.44C22.6896 14.41 21.0296 12.75 18.9996 12.75Z" fill="#232122"/>
<path d="M26.5394 21.75C26.5094 21.75 26.4794 21.75 26.4494 21.74C26.0394 21.78 25.6194 21.49 25.5794 21.08C25.5394 20.67 25.7894 20.3 26.1994 20.25C26.3194 20.24 26.4494 20.24 26.5594 20.24C28.0194 20.16 29.1594 18.96 29.1594 17.49C29.1594 15.97 27.9294 14.74 26.4094 14.74C25.9994 14.75 25.6594 14.41 25.6594 14C25.6594 13.59 25.9994 13.25 26.4094 13.25C28.7494 13.25 30.6594 15.16 30.6594 17.5C30.6594 19.8 28.8594 21.66 26.5694 21.75C26.5594 21.75 26.5494 21.75 26.5394 21.75Z" fill="#232122"/>
<path d="M19.1696 32.55C17.2096 32.55 15.2396 32.05 13.7496 31.05C12.3596 30.13 11.5996 28.87 11.5996 27.5C11.5996 26.13 12.3596 24.86 13.7496 23.93C16.7496 21.94 21.6096 21.94 24.5896 23.93C25.9696 24.85 26.7396 26.11 26.7396 27.48C26.7396 28.85 25.9796 30.12 24.5896 31.05C23.0896 32.05 21.1296 32.55 19.1696 32.55ZM14.5796 25.19C13.6196 25.83 13.0996 26.65 13.0996 27.51C13.0996 28.36 13.6296 29.18 14.5796 29.81C17.0696 31.48 21.2696 31.48 23.7596 29.81C24.7196 29.17 25.2396 28.35 25.2396 27.49C25.2396 26.64 24.7096 25.82 23.7596 25.19C21.2696 23.53 17.0696 23.53 14.5796 25.19Z" fill="#232122"/>
<path d="M28.3392 30.75C27.9892 30.75 27.6792 30.51 27.6092 30.15C27.5292 29.74 27.7892 29.35 28.1892 29.26C28.8192 29.13 29.3992 28.88 29.8492 28.53C30.4192 28.1 30.7292 27.56 30.7292 26.99C30.7292 26.42 30.4192 25.88 29.8592 25.46C29.4192 25.12 28.8692 24.88 28.2192 24.73C27.8192 24.64 27.5592 24.24 27.6492 23.83C27.7392 23.43 28.1392 23.17 28.5492 23.26C29.4092 23.45 30.1592 23.79 30.7692 24.26C31.6992 24.96 32.2292 25.95 32.2292 26.99C32.2292 28.03 31.6892 29.02 30.7592 29.73C30.1392 30.21 29.3592 30.56 28.4992 30.73C28.4392 30.75 28.3892 30.75 28.3392 30.75Z" fill="#232122"/>
</svg>
