<svg width="45" height="44" viewBox="0 0 45 44" fill="none" xmlns="http://www.w3.org/2000/svg">
<rect x="0.5" width="44" height="44" rx="22" fill="#F2A531"/>
<path d="M19.6586 21.62C19.6286 21.62 19.6086 21.62 19.5786 21.62C19.5286 21.61 19.4586 21.61 19.3986 21.62C16.4986 21.53 14.3086 19.25 14.3086 16.44C14.3086 13.58 16.6386 11.25 19.4986 11.25C22.3586 11.25 24.6886 13.58 24.6886 16.44C24.6786 19.25 22.4786 21.53 19.6886 21.62C19.6786 21.62 19.6686 21.62 19.6586 21.62ZM19.4986 12.75C17.4686 12.75 15.8086 14.41 15.8086 16.44C15.8086 18.44 17.3686 20.05 19.3586 20.12C19.4186 20.11 19.5486 20.11 19.6786 20.12C21.6386 20.03 23.1786 18.42 23.1886 16.44C23.1886 14.41 21.5286 12.75 19.4986 12.75Z" fill="#F6F6F6"/>
<path d="M27.0384 21.75C27.0084 21.75 26.9784 21.75 26.9484 21.74C26.5384 21.78 26.1184 21.49 26.0784 21.08C26.0384 20.67 26.2884 20.3 26.6984 20.25C26.8184 20.24 26.9484 20.24 27.0584 20.24C28.5184 20.16 29.6584 18.96 29.6584 17.49C29.6584 15.97 28.4284 14.74 26.9084 14.74C26.4984 14.75 26.1584 14.41 26.1584 14C26.1584 13.59 26.4984 13.25 26.9084 13.25C29.2484 13.25 31.1584 15.16 31.1584 17.5C31.1584 19.8 29.3584 21.66 27.0684 21.75C27.0584 21.75 27.0484 21.75 27.0384 21.75Z" fill="#F6F6F6"/>
<path d="M19.6716 32.55C17.7116 32.55 15.7416 32.05 14.2516 31.05C12.8616 30.13 12.1016 28.87 12.1016 27.5C12.1016 26.13 12.8616 24.86 14.2516 23.93C17.2516 21.94 22.1116 21.94 25.0916 23.93C26.4716 24.85 27.2416 26.11 27.2416 27.48C27.2416 28.85 26.4816 30.12 25.0916 31.05C23.5916 32.05 21.6316 32.55 19.6716 32.55ZM15.0816 25.19C14.1216 25.83 13.6016 26.65 13.6016 27.51C13.6016 28.36 14.1316 29.18 15.0816 29.81C17.5716 31.48 21.7716 31.48 24.2616 29.81C25.2216 29.17 25.7416 28.35 25.7416 27.49C25.7416 26.64 25.2116 25.82 24.2616 25.19C21.7716 23.53 17.5716 23.53 15.0816 25.19Z" fill="#F6F6F6"/>
<path d="M28.8382 30.75C28.4882 30.75 28.1782 30.51 28.1082 30.15C28.0282 29.74 28.2882 29.35 28.6882 29.26C29.3182 29.13 29.8982 28.88 30.3482 28.53C30.9182 28.1 31.2282 27.56 31.2282 26.99C31.2282 26.42 30.9182 25.88 30.3582 25.46C29.9182 25.12 29.3682 24.88 28.7182 24.73C28.3182 24.64 28.0582 24.24 28.1482 23.83C28.2382 23.43 28.6382 23.17 29.0482 23.26C29.9082 23.45 30.6582 23.79 31.2682 24.26C32.1982 24.96 32.7282 25.95 32.7282 26.99C32.7282 28.03 32.1882 29.02 31.2582 29.73C30.6382 30.21 29.8582 30.56 28.9982 30.73C28.9382 30.75 28.8882 30.75 28.8382 30.75Z" fill="#F6F6F6"/>
</svg>
