<svg width="33" height="33" viewBox="0 0 33 33" fill="none" xmlns="http://www.w3.org/2000/svg">
<rect width="33" height="33" rx="16.5" fill="#F6F6F6"/>
<path d="M14.251 16.1993C14.2273 16.1993 14.2115 16.1993 14.1877 16.1993C14.1481 16.1914 14.0927 16.1914 14.0452 16.1993C11.7494 16.1281 10.0156 14.3231 10.0156 12.0985C10.0156 9.83433 11.8602 7.98975 14.1244 7.98975C16.3885 7.98975 18.2331 9.83433 18.2331 12.0985C18.2252 14.3231 16.4835 16.1281 14.2748 16.1993C14.2669 16.1993 14.259 16.1993 14.251 16.1993ZM14.1244 9.17725C12.5173 9.17725 11.2031 10.4914 11.2031 12.0985C11.2031 13.6818 12.4381 14.9564 14.0135 15.0118C14.061 15.0039 14.164 15.0039 14.2669 15.0118C15.8185 14.9406 17.0377 13.666 17.0456 12.0985C17.0456 10.4914 15.7315 9.17725 14.1244 9.17725Z" fill="#232122"/>
<path d="M20.0934 16.3019C20.0696 16.3019 20.0459 16.3019 20.0221 16.294C19.6976 16.3257 19.3651 16.0961 19.3334 15.7715C19.3017 15.4469 19.4996 15.154 19.8242 15.1144C19.9192 15.1065 20.0221 15.1065 20.1092 15.1065C21.2651 15.0432 22.1676 14.0932 22.1676 12.9294C22.1676 11.7261 21.1938 10.7523 19.9905 10.7523C19.6659 10.7603 19.3967 10.4911 19.3967 10.1665C19.3967 9.84192 19.6659 9.57275 19.9905 9.57275C21.843 9.57275 23.3551 11.0848 23.3551 12.9373C23.3551 14.7582 21.9301 16.2307 20.1171 16.3019C20.1092 16.3019 20.1013 16.3019 20.0934 16.3019Z" fill="#232122"/>
<path d="M14.2595 24.8519C12.7079 24.8519 11.1483 24.4561 9.96869 23.6644C8.86827 22.9361 8.2666 21.9386 8.2666 20.854C8.2666 19.7694 8.86827 18.764 9.96869 18.0278C12.3437 16.4523 16.1912 16.4523 18.5504 18.0278C19.6429 18.7561 20.2524 19.7536 20.2524 20.8382C20.2524 21.9228 19.6508 22.9282 18.5504 23.6644C17.3629 24.4561 15.8112 24.8519 14.2595 24.8519ZM10.6258 19.0253C9.86577 19.5319 9.4541 20.1811 9.4541 20.8619C9.4541 21.5348 9.87369 22.184 10.6258 22.6828C12.597 24.0048 15.922 24.0048 17.8933 22.6828C18.6533 22.1761 19.0649 21.5269 19.0649 20.8461C19.0649 20.1732 18.6454 19.524 17.8933 19.0253C15.922 17.7111 12.597 17.7111 10.6258 19.0253Z" fill="#232122"/>
<path d="M21.5191 23.4271C21.242 23.4271 20.9966 23.2371 20.9411 22.9521C20.8778 22.6275 21.0836 22.3188 21.4003 22.2475C21.8991 22.1446 22.3582 21.9467 22.7145 21.6696C23.1657 21.3292 23.4111 20.9017 23.4111 20.4504C23.4111 19.9992 23.1657 19.5717 22.7224 19.2392C22.3741 18.97 21.9386 18.78 21.4241 18.6613C21.1074 18.59 20.9016 18.2733 20.9728 17.9488C21.0441 17.6321 21.3607 17.4263 21.6853 17.4975C22.3661 17.6479 22.9599 17.9171 23.4428 18.2892C24.1791 18.8433 24.5986 19.6271 24.5986 20.4504C24.5986 21.2738 24.1711 22.0575 23.4349 22.6196C22.9441 22.9996 22.3266 23.2767 21.6457 23.4113C21.5982 23.4271 21.5586 23.4271 21.5191 23.4271Z" fill="#232122"/>
</svg>
