<svg width="33" height="33" viewBox="0 0 33 33" fill="none" xmlns="http://www.w3.org/2000/svg">
<rect width="33" height="33" rx="16.5" fill="#F6F6F6"/>
<path d="M16.4997 25.0106C11.8051 25.0106 7.98926 21.1947 7.98926 16.5002C7.98926 11.8056 11.8051 7.98975 16.4997 7.98975C21.1943 7.98975 25.0101 11.8056 25.0101 16.5002C25.0101 21.1947 21.1943 25.0106 16.4997 25.0106ZM16.4997 9.17725C12.4622 9.17725 9.17676 12.4627 9.17676 16.5002C9.17676 20.5377 12.4622 23.8231 16.4997 23.8231C20.5372 23.8231 23.8226 20.5377 23.8226 16.5002C23.8226 12.4627 20.5372 9.17725 16.4997 9.17725Z" fill="#232122"/>
<path d="M19.4369 19.6111C19.334 19.6111 19.2311 19.5874 19.1361 19.5241L16.6819 18.0595C16.0723 17.6953 15.6211 16.8957 15.6211 16.1911V12.9453C15.6211 12.6207 15.8903 12.3516 16.2148 12.3516C16.5394 12.3516 16.8086 12.6207 16.8086 12.9453V16.1911C16.8086 16.4761 17.0461 16.8957 17.2915 17.0382L19.7457 18.5028C20.0307 18.6691 20.1178 19.0332 19.9515 19.3182C19.8328 19.5082 19.6348 19.6111 19.4369 19.6111Z" fill="#232122"/>
</svg>
