<svg width="1528" height="174" viewBox="0 0 1528 174" fill="none" xmlns="http://www.w3.org/2000/svg">
  <path d="M204.543 3V58.92H137.458V171H70.0852V58.92H3V3H204.543Z" fill="#5534F5" />
  <path d="M344.726 3L411.812 171H341.271L335.801 157.08H260.366L254.896 171H184.355L251.441 3H344.726ZM277.353 115.08H319.102L298.083 62.76L277.353 115.08Z" fill="#F2A531" />
  <path d="M428.974 171V3H496.059L563.433 82.68V3H630.518V171H563.433L496.059 91.32V171H428.974Z" fill="#00B487" />
  <path d="M855.174 3V58.92H788.088V171H720.715V58.92H653.63V3H855.174Z" fill="#FFC548" />
  <path d="M995.356 3L1062.44 171H991.901L986.431 157.08H910.996L905.526 171H834.985L902.071 3H995.356ZM927.983 115.08H969.732L948.714 62.76L927.983 115.08Z" fill="#C32824" />
  <path d="M1079.6 171V3H1146.69L1214.06 82.68V3H1281.15V171H1214.06L1146.69 91.32V171H1079.6Z" fill="#00B487" />
  <path d="M1455.91 3L1523 171H1452.46L1446.99 157.08H1371.55L1366.08 171H1295.54L1362.63 3H1455.91ZM1388.54 115.08H1430.29L1409.27 62.76L1388.54 115.08Z" fill="#F2A531" />
  <path d="M206.043 3V1.5H204.543H3H1.5V3V58.92V60.42H3H68.5852V171V172.5H70.0852H137.458H138.958V171V60.42H204.543H206.043V58.92V3ZM346.119 2.44373L345.743 1.5H344.726H251.441H250.424L250.048 2.44373L182.962 170.444L182.141 172.5H184.355H254.896H255.918L256.292 171.549L261.388 158.58H334.779L339.875 171.549L340.249 172.5H341.271H411.812H414.026L413.205 170.444L346.119 2.44373ZM427.474 171V172.5H428.974H496.059H497.559V171V95.4172L562.287 171.969L562.737 172.5H563.433H630.518H632.018V171V3V1.5H630.518H563.433H561.933V3V78.5828L497.205 2.03149L496.755 1.5H496.059H428.974H427.474V3V171ZM856.674 3V1.5H855.174H653.63H652.13V3V58.92V60.42H653.63H719.215V171V172.5H720.715H788.088H789.588V171V60.42H855.174H856.674V58.92V3ZM996.75 2.44373L996.373 1.5H995.356H902.071H901.054L900.678 2.44373L833.592 170.444L832.771 172.5H834.985H905.526H906.548L906.922 171.549L912.018 158.58H985.409L990.505 171.549L990.879 172.5H991.901H1062.44H1064.66L1063.83 170.444L996.75 2.44373ZM1078.1 171V172.5H1079.6H1146.69H1148.19V171V95.4171L1212.92 171.969L1213.37 172.5H1214.06H1281.15H1282.65V171V3V1.5H1281.15H1214.06H1212.56V3V78.5827L1147.83 2.03149L1147.39 1.5H1146.69H1079.6H1078.1V3V171ZM1457.31 2.44373L1456.93 1.5H1455.91H1362.63H1361.61L1361.24 2.44373L1294.15 170.444L1293.33 172.5H1295.54H1366.08H1367.11L1367.48 171.549L1372.58 158.58H1445.97L1451.06 171.549L1451.44 172.5H1452.46H1523H1525.21L1524.39 170.444L1457.31 2.44373ZM316.883 113.58H279.561L298.093 66.8079L316.883 113.58ZM948.723 66.8079L967.513 113.58H930.191L948.723 66.8079ZM1390.75 113.58L1409.28 66.8078L1428.07 113.58H1390.75Z" stroke="#232122" stroke-width="3" />
</svg>