<svg width="52" height="52" viewBox="0 0 52 52" fill="none" xmlns="http://www.w3.org/2000/svg">
<rect width="52" height="52" rx="26" fill="#232122"/>
<path d="M33.2096 17.3547C33.2096 17.3547 35.1523 16.5972 34.9904 18.4368C34.9364 19.1943 34.4508 21.8456 34.073 24.7133L32.7779 33.2081C32.7779 33.2081 32.67 34.4526 31.6987 34.669C30.7273 34.8854 29.2704 33.9115 29.0005 33.6951C28.7847 33.5328 24.9534 31.0979 23.6043 29.9076C23.2265 29.5829 22.7948 28.9336 23.6582 28.1761L29.3243 22.7654C29.9719 22.1161 30.6194 20.6011 27.9213 22.4408L20.3665 27.581C20.3665 27.581 19.5031 28.122 17.8843 27.6351L14.3767 26.5529C14.3767 26.5529 13.0816 25.7413 15.2941 24.9297C20.6903 22.3866 27.3277 19.7895 33.2096 17.3547Z" fill="#F6F6F6"/>
</svg>
