<svg width="52" height="52" viewBox="0 0 52 52" fill="none" xmlns="http://www.w3.org/2000/svg">
<rect width="52" height="52" rx="26" fill="#232122"/>
<g clip-path="url(#clip0_19167_26868)">
<path d="M26 14C20.075 14 14 15.275 14 24.5C14 29.45 15.725 32.525 19.25 33.95V36.725C19.25 37.25 19.55 37.7 20 37.925C20.15 38 20.375 38 20.525 38C20.825 38 21.2 37.85 21.425 37.625L24.125 34.925C24.725 34.925 25.325 35 26 35C31.925 35 38 33.725 38 24.5C38 15.275 31.925 14 26 14ZM25.625 21.65C26.975 21.65 28.1 22.775 28.1 24.125C28.1 24.575 27.8 24.875 27.35 24.875C26.9 24.875 26.6 24.575 26.6 24.125C26.6 23.6 26.15 23.15 25.625 23.15C25.175 23.15 24.875 22.85 24.875 22.4C24.875 21.95 25.175 21.65 25.625 21.65ZM24.875 20.075C24.875 19.625 25.175 19.325 25.625 19.325C28.25 19.325 30.425 21.5 30.425 24.125C30.425 24.575 30.125 24.875 29.675 24.875C29.225 24.875 28.925 24.575 28.925 24.125C28.925 22.325 27.425 20.825 25.625 20.825C25.175 20.825 24.875 20.45 24.875 20.075ZM31.025 29.375C30.725 30.275 29.6 31.025 28.625 31.175C28.4 31.25 28.175 31.25 27.875 31.25C27.275 31.25 26.375 31.1 24.8 30.425C23 29.675 21.2 28.1 19.775 26.075V26C19.325 25.325 18.5 24.05 18.5 22.7C18.5 21.05 19.325 20.225 19.625 19.85C20.075 19.475 20.6 19.25 21.2 19.25C21.35 19.25 21.425 19.25 21.575 19.25C22.1 19.25 22.475 19.4 22.85 20.15L23.15 20.75C23.375 21.35 23.675 22.025 23.75 22.1C23.975 22.55 23.975 22.925 23.75 23.3C23.675 23.525 23.525 23.675 23.375 23.825C23.3 23.975 23.225 24.05 23.15 24.05C23.075 24.125 23.075 24.125 23 24.2C23.225 24.575 23.675 25.25 24.275 25.775C25.175 26.6 25.85 26.825 26.225 26.975C26.375 26.825 26.525 26.525 26.75 26.3L26.825 26.15C27.2 25.625 27.8 25.475 28.4 25.7C28.7 25.85 30.35 26.6 30.35 26.6L30.5 26.675C30.725 26.825 31.025 26.9 31.175 27.2C31.4 27.875 31.175 28.85 31.025 29.375ZM32 24.875C31.55 24.875 31.25 24.575 31.25 24.125C31.25 21.05 28.7 18.5 25.625 18.5C25.175 18.5 24.875 18.2 24.875 17.75C24.875 17.3 25.175 17 25.625 17C29.525 17 32.75 20.225 32.75 24.125C32.75 24.575 32.45 24.875 32 24.875Z" fill="#F6F6F6"/>
</g>
<defs>
<clipPath id="clip0_19167_26868">
<rect width="24" height="24" fill="white" transform="translate(14 14)"/>
</clipPath>
</defs>
</svg>
