<svg width="52" height="52" viewBox="0 0 52 52" fill="none" xmlns="http://www.w3.org/2000/svg">
<rect width="52" height="52" rx="26" fill="#232122"/>
<path d="M28.2972 25.8128C27.9222 25.6718 27.9222 25.1333 27.899 24.7583C27.8052 23.4225 28.274 21.3833 27.7115 20.5163C27.3132 20.0003 25.391 20.0475 24.2195 20.118C23.891 20.1653 23.4927 20.235 23.2115 20.376C22.9302 20.517 22.649 20.751 22.649 20.9618C22.649 21.2663 23.3525 21.2198 23.6097 21.618C23.891 22.0403 23.891 22.9538 23.891 23.7038C23.891 24.5708 23.75 25.7198 23.399 25.7663C22.8597 25.7895 22.5552 25.2503 22.274 24.852C21.7115 24.0788 21.149 23.1173 20.7267 22.1798C20.516 21.6878 20.3982 21.1485 20.0937 20.9378C19.625 20.6093 18.7812 20.586 17.9607 20.6093C17.2107 20.6325 16.1322 20.5388 15.9215 20.9843C15.7572 21.4763 16.109 21.945 16.2965 22.344C17.2572 24.4298 18.2885 26.2583 19.5545 27.9923C20.7267 29.6093 21.8277 30.8985 23.984 31.578C24.5937 31.7655 27.2652 32.3048 27.8045 31.578C27.992 31.2968 27.9455 30.6638 28.0392 30.195C28.133 29.7263 28.25 29.2575 28.6955 29.2343C29.0705 29.211 29.2812 29.5388 29.516 29.7735C29.774 30.0315 29.9847 30.2423 30.1722 30.477C30.6177 30.9225 31.0865 31.5315 31.649 31.7663C32.4222 32.0948 33.6177 32.001 34.7427 31.9538C35.657 31.9305 36.3132 31.743 36.3837 31.2038C36.431 30.7815 35.9615 30.1725 35.6802 29.8208C34.9767 28.9538 34.649 28.6958 33.8517 27.8985C33.5 27.5468 33.0545 27.1718 33.0545 26.7503C33.0312 26.4923 33.242 26.2583 33.4295 26.0003C34.25 24.7815 35.0705 23.9145 35.8205 22.6485C36.0312 22.2735 36.524 21.4065 36.3365 20.9843C36.1257 20.5155 34.9535 20.6558 34.2267 20.6558C33.2892 20.6558 32.0705 20.5853 31.8357 20.7728C31.3902 21.0773 31.2027 21.57 30.992 22.0388C30.5232 23.1173 29.8902 24.2183 29.234 25.0388C28.9992 25.32 28.5545 25.9058 28.2965 25.812L28.2972 25.8128Z" fill="#F6F6F6"/>
</svg>
