<svg width="52" height="52" viewBox="0 0 52 52" fill="none" xmlns="http://www.w3.org/2000/svg">
<rect width="52" height="52" rx="26" fill="#232122"/>
<g clip-path="url(#clip0_19167_26859)">
<path fill-rule="evenodd" clip-rule="evenodd" d="M32.9852 30.9453C32.696 31.764 31.5464 32.4412 30.6296 32.6393C30.002 32.7725 29.1836 32.8779 26.426 31.7352C23.3288 30.452 19.028 25.8812 19.028 22.8395C19.028 21.291 19.9208 19.4879 21.482 19.4879C22.2332 19.4879 22.3988 19.5025 22.646 20.0955C22.9352 20.7941 23.6408 22.5153 23.7248 22.6918C24.0716 23.4156 23.372 23.8393 22.8644 24.4695C22.7024 24.6592 22.5188 24.8643 22.724 25.2172C22.928 25.5629 23.6336 26.7129 24.6704 27.6359C26.0096 28.8291 27.0956 29.21 27.4844 29.3721C27.7736 29.4921 28.1192 29.4641 28.3304 29.2385C28.598 28.9492 28.9304 28.4692 29.2688 27.9963C29.5076 27.6578 29.8112 27.6155 30.1292 27.7355C30.344 27.81 33.074 29.0778 33.1892 29.2807C33.2744 29.4283 33.2744 30.1267 32.9852 30.9453ZM26.0024 14H25.9964C19.3808 14 14 19.3824 14 26C14 28.624 14.846 31.0584 16.2848 33.033L14.7896 37.492L19.4012 36.0184C21.2984 37.2739 23.5628 38 26.0024 38C32.618 38 38 32.6176 38 26C38 19.3824 32.618 14 26.0024 14Z" fill="#F6F6F6"/>
</g>
<defs>
<clipPath id="clip0_19167_26859">
<rect width="24" height="24" fill="white" transform="translate(14 14)"/>
</clipPath>
</defs>
</svg>
